<svg width="24" height="24" viewBox="0 0 24 24" fill="none" xmlns="http://www.w3.org/2000/svg">
<path d="M9.27237 22C9.77445 22 10.1815 21.5949 10.1815 21.0952C10.1815 20.5956 9.77445 20.1905 9.27237 20.1905C8.7703 20.1905 8.36328 20.5956 8.36328 21.0952C8.36328 21.5949 8.7703 22 9.27237 22Z" fill="white" stroke="white" stroke-width="2" stroke-linecap="round" stroke-linejoin="round"/>
<path d="M19.2724 22C19.7744 22 20.1815 21.5949 20.1815 21.0952C20.1815 20.5956 19.7744 20.1905 19.2724 20.1905C18.7703 20.1905 18.3633 20.5956 18.3633 21.0952C18.3633 21.5949 18.7703 22 19.2724 22Z" fill="white" stroke="white" stroke-width="2" stroke-linecap="round" stroke-linejoin="round"/>
<path d="M2 3H5.63636L8.07273 15.1148C8.15586 15.5313 8.38355 15.9055 8.71595 16.1718C9.04835 16.4381 9.46427 16.5796 9.89091 16.5714H18.7273C19.1539 16.5796 19.5698 16.4381 19.9022 16.1718C20.2346 15.9055 20.4623 15.5313 20.5455 15.1148L22 7.52381H6.54545" stroke="white" stroke-width="2" stroke-linecap="round" stroke-linejoin="round"/>
</svg>
